<svg width="21" height="22" viewBox="0 0 21 22" fill="none" xmlns="http://www.w3.org/2000/svg">
<path d="M16.2479 21.688C15.9119 21.688 15.6319 21.584 15.4079 21.376C15.1999 21.184 15.0879 20.912 15.0719 20.56C15.0559 20.288 15.1359 20.04 15.3119 19.816C15.5039 19.576 15.7679 19.448 16.1039 19.432C16.9039 19.368 17.4239 19.248 17.6639 19.072C17.9199 18.88 18.0479 18.488 18.0479 17.896V12.976H12.8879C12.5839 15.104 11.8879 16.848 10.7999 18.208C9.72786 19.568 8.26386 20.648 6.40786 21.448C6.05586 21.592 5.72786 21.624 5.42386 21.544C5.11986 21.48 4.89586 21.296 4.75186 20.992C4.60786 20.688 4.59186 20.4 4.70386 20.128C4.83186 19.856 5.04786 19.664 5.35186 19.552C7.25586 18.816 8.66386 17.736 9.57586 16.312C10.4879 14.872 10.9439 12.904 10.9439 10.408V4.26399C10.9439 3.36799 11.0639 2.66399 11.3039 2.15199C11.5439 1.62399 11.9519 1.24799 12.5279 1.02399C13.1039 0.799988 13.8799 0.687988 14.8559 0.687988H16.2959C17.2719 0.687988 18.0399 0.799988 18.5999 1.02399C19.1759 1.24799 19.5839 1.62399 19.8239 2.15199C20.0639 2.66399 20.1839 3.36799 20.1839 4.26399V18.4C20.1839 19.568 19.8959 20.408 19.3199 20.92C18.7439 21.432 17.7199 21.688 16.2479 21.688ZM4.43986 15.088C3.41586 15.088 2.59986 14.976 1.99186 14.752C1.39986 14.528 0.975863 14.152 0.719863 13.624C0.479863 13.096 0.359863 12.376 0.359863 11.464V4.93599C0.359863 4.00799 0.479863 3.28799 0.719863 2.77599C0.975863 2.24799 1.39986 1.87199 1.99186 1.64799C2.59986 1.42399 3.41586 1.31199 4.43986 1.31199C5.47986 1.31199 6.29586 1.42399 6.88786 1.64799C7.47986 1.87199 7.89586 2.24799 8.13586 2.77599C8.39186 3.28799 8.51986 4.00799 8.51986 4.93599V11.464C8.51986 12.376 8.39186 13.096 8.13586 13.624C7.89586 14.152 7.47986 14.528 6.88786 14.752C6.29586 14.976 5.47986 15.088 4.43986 15.088ZM13.0559 11.104H18.0479V7.79199H13.0799V10.408C13.0799 10.52 13.0719 10.64 13.0559 10.768C13.0559 10.88 13.0559 10.992 13.0559 11.104ZM13.0799 5.91999H18.0479V4.40799C18.0479 3.75199 17.9199 3.30399 17.6639 3.06399C17.4079 2.82399 16.8959 2.70399 16.1279 2.70399H14.9759C14.2239 2.70399 13.7199 2.82399 13.4639 3.06399C13.2079 3.30399 13.0799 3.75199 13.0799 4.40799V5.91999ZM4.46386 13.072C5.26386 13.072 5.79186 12.96 6.04786 12.736C6.30386 12.496 6.43186 12.032 6.43186 11.344V9.06399H2.49586V11.344C2.49586 12.032 2.61586 12.496 2.85586 12.736C3.11186 12.96 3.64786 13.072 4.46386 13.072ZM2.49586 7.16799H6.43186V5.00799C6.43186 4.30399 6.30386 3.83999 6.04786 3.61599C5.79186 3.37599 5.26386 3.25599 4.46386 3.25599C3.64786 3.25599 3.11186 3.37599 2.85586 3.61599C2.61586 3.83999 2.49586 4.30399 2.49586 5.00799V7.16799Z" fill="white"/>
</svg>
