<svg width="22" height="23" viewBox="0 0 22 23" fill="none" xmlns="http://www.w3.org/2000/svg">
<path d="M3.288 17.952C2.072 17.952 1.216 17.72 0.72 17.256C0.24 16.776 0 15.928 0 14.712V5.448C0 4.216 0.24 3.368 0.72 2.904C1.216 2.44 2.072 2.208 3.288 2.208C4.52 2.208 5.376 2.448 5.856 2.928C6.352 3.392 6.6 4.232 6.6 5.448V9.48C6.68 9.304 6.8 9.16 6.96 9.048C7.12 8.92 7.304 8.856 7.512 8.856H10.92C10.744 8.44 10.544 7.976 10.32 7.464C10.112 6.952 9.952 6.592 9.84 6.384C9.728 6.128 9.728 5.872 9.84 5.616C9.952 5.36 10.16 5.184 10.464 5.088C10.768 4.976 11.048 4.976 11.304 5.088C11.56 5.184 11.744 5.368 11.856 5.64C11.968 5.864 12.112 6.184 12.288 6.6C12.464 7.016 12.64 7.44 12.816 7.872C12.992 8.288 13.128 8.616 13.224 8.856H14.952C15.096 8.584 15.264 8.232 15.456 7.8C15.664 7.352 15.856 6.92 16.032 6.504C16.224 6.072 16.36 5.752 16.44 5.544C16.568 5.256 16.768 5.056 17.04 4.944C17.312 4.832 17.592 4.84 17.88 4.968C18.168 5.08 18.368 5.264 18.48 5.52C18.608 5.76 18.608 6.016 18.48 6.288C18.352 6.608 18.168 7.016 17.928 7.512C17.704 7.992 17.48 8.44 17.256 8.856H20.808C21.08 8.856 21.304 8.952 21.48 9.144C21.672 9.32 21.768 9.544 21.768 9.816C21.768 10.072 21.672 10.296 21.48 10.488C21.304 10.68 21.08 10.776 20.808 10.776H7.512C7.304 10.776 7.12 10.72 6.96 10.608C6.8 10.48 6.68 10.328 6.6 10.152V14.712C6.6 15.928 6.352 16.776 5.856 17.256C5.376 17.72 4.52 17.952 3.288 17.952ZM13.368 22.056C12.28 22.056 11.424 21.936 10.8 21.696C10.176 21.472 9.736 21.088 9.48 20.544C9.224 20.016 9.096 19.288 9.096 18.36V15.888C9.096 14.96 9.224 14.232 9.48 13.704C9.736 13.176 10.176 12.8 10.8 12.576C11.424 12.352 12.28 12.24 13.368 12.24H14.88C15.984 12.24 16.84 12.352 17.448 12.576C18.072 12.8 18.504 13.176 18.744 13.704C19 14.232 19.128 14.96 19.128 15.888V18.36C19.128 19.288 19 20.016 18.744 20.544C18.504 21.088 18.072 21.472 17.448 21.696C16.84 21.936 15.984 22.056 14.88 22.056H13.368ZM8.448 4.824C8.192 4.824 7.968 4.728 7.776 4.536C7.6 4.344 7.512 4.12 7.512 3.864C7.512 3.608 7.6 3.392 7.776 3.216C7.968 3.024 8.192 2.928 8.448 2.928H13.008V1.08C13.008 0.76 13.112 0.504 13.32 0.312C13.528 0.104 13.784 0 14.088 0C14.392 0 14.648 0.104 14.856 0.312C15.064 0.504 15.168 0.76 15.168 1.08V2.928H20.112C20.384 2.928 20.608 3.024 20.784 3.216C20.976 3.392 21.072 3.608 21.072 3.864C21.072 4.12 20.976 4.344 20.784 4.536C20.608 4.728 20.384 4.824 20.112 4.824H8.448ZM3.288 15.984C3.8 15.984 4.144 15.896 4.32 15.72C4.512 15.544 4.608 15.208 4.608 14.712V10.944H1.992V14.712C1.992 15.208 2.08 15.544 2.256 15.72C2.448 15.896 2.792 15.984 3.288 15.984ZM1.992 8.976H4.608V5.448C4.608 4.968 4.512 4.64 4.32 4.464C4.144 4.272 3.8 4.176 3.288 4.176C2.792 4.176 2.448 4.272 2.256 4.464C2.08 4.64 1.992 4.968 1.992 5.448V8.976ZM13.368 20.112H14.88C15.744 20.112 16.32 20.008 16.608 19.8C16.896 19.576 17.04 19.096 17.04 18.36V18.024H11.232V18.36C11.232 19.096 11.368 19.576 11.64 19.8C11.928 20.008 12.504 20.112 13.368 20.112ZM11.232 16.176H17.04V15.888C17.04 15.152 16.896 14.672 16.608 14.448C16.32 14.208 15.744 14.088 14.88 14.088H13.368C12.504 14.088 11.928 14.208 11.64 14.448C11.368 14.672 11.232 15.152 11.232 15.888V16.176Z" fill="white"/>
</svg>
