<svg width="20" height="19" viewBox="0 0 20 19" fill="white" xmlns="http://www.w3.org/2000/svg">
<path d="M6.832 18.952C5.184 18.952 3.864 18.792 2.872 18.472C1.88 18.152 1.16 17.56 0.712 16.696C0.28 15.816 0.0640001 14.552 0.0640001 12.904V6.88C0.0640001 5.232 0.28 3.976 0.712 3.112C1.16 2.232 1.88 1.632 2.872 1.312C3.864 0.991999 5.184 0.831999 6.832 0.831999H13.192C14.84 0.831999 16.16 0.991999 17.152 1.312C18.144 1.632 18.856 2.232 19.288 3.112C19.736 3.976 19.96 5.232 19.96 6.88V12.904C19.96 14.552 19.736 15.816 19.288 16.696C18.856 17.56 18.144 18.152 17.152 18.472C16.16 18.792 14.84 18.952 13.192 18.952H6.832ZM6.88 16.84H13.12C14.288 16.84 15.216 16.736 15.904 16.528C16.592 16.32 17.08 15.92 17.368 15.328C17.672 14.736 17.824 13.856 17.824 12.688V10.888C17.568 11.768 17.12 12.384 16.48 12.736C15.856 13.072 15.08 13.24 14.152 13.24C12.904 13.24 12 13.032 11.44 12.616C10.896 12.2 10.624 11.392 10.624 10.192V2.944H8.416V4.24C8.416 5.968 8.312 7.408 8.104 8.56C7.896 9.696 7.52 10.664 6.976 11.464C6.448 12.248 5.688 12.968 4.696 13.624C4.424 13.8 4.12 13.896 3.784 13.912C3.448 13.928 3.184 13.816 2.992 13.576C2.8 13.32 2.728 13.04 2.776 12.736C2.824 12.416 2.976 12.176 3.232 12.016C3.872 11.6 4.392 11.176 4.792 10.744C5.192 10.312 5.504 9.816 5.728 9.256C5.952 8.68 6.104 7.992 6.184 7.192C6.264 6.376 6.304 5.392 6.304 4.24V2.944C5.296 2.96 4.488 3.088 3.88 3.328C3.288 3.568 2.856 3.984 2.584 4.576C2.328 5.152 2.2 5.992 2.2 7.096V12.688C2.2 13.856 2.344 14.736 2.632 15.328C2.936 15.92 3.432 16.32 4.12 16.528C4.808 16.736 5.728 16.84 6.88 16.84ZM14.248 11.056C14.712 11.056 15.048 10.968 15.256 10.792C15.48 10.616 15.672 10.256 15.832 9.712C15.912 9.44 16.088 9.248 16.36 9.136C16.648 9.024 16.92 9.008 17.176 9.088C17.48 9.152 17.696 9.32 17.824 9.592V7.096C17.824 5.928 17.672 5.048 17.368 4.456C17.08 3.864 16.592 3.464 15.904 3.256C15.216 3.048 14.288 2.944 13.12 2.944H12.76V9.88C12.76 10.36 12.872 10.68 13.096 10.84C13.32 10.984 13.704 11.056 14.248 11.056Z" fill="white"/>
</svg>
